<svg width="88" height="88" viewBox="0 0 88 88" fill="none" xmlns="http://www.w3.org/2000/svg">
<path d="M44 85C66.6437 85 85 66.6437 85 44C85 21.3563 66.6437 3 44 3C21.3563 3 3 21.3563 3 44C3 66.6437 21.3563 85 44 85Z" fill="#C2255C" stroke="black" stroke-width="5.84" stroke-linecap="round" stroke-linejoin="round"/>
<path d="M38.397 60.6007C27.3991 63.8958 27.3991 55.1088 23 54.0104ZM53.794 67.191V58.6895C53.8765 57.642 53.7348 56.589 53.3783 55.6004C53.0218 54.6118 52.4587 53.7104 51.7264 52.9559C58.6331 52.1871 65.8916 49.5729 65.8916 37.5786C65.8911 34.5115 64.7098 31.562 62.5923 29.3407C63.595 26.6573 63.5241 23.6914 62.3943 21.0589C62.3943 21.0589 59.7988 20.29 53.794 24.3101C48.7526 22.9455 43.4384 22.9455 38.397 24.3101C32.3922 20.29 29.7967 21.0589 29.7967 21.0589C28.6669 23.6914 28.596 26.6573 29.5987 29.3407C27.4654 31.5785 26.2829 34.5546 26.2994 37.6445C26.2994 49.5509 33.5579 52.1651 40.4646 53.0218C39.7409 53.7687 39.1828 54.6593 38.8266 55.6358C38.4704 56.6123 38.324 57.6528 38.397 58.6895V67.191" fill="#C2255C"/>
<path d="M38.397 60.6007C27.3991 63.8958 27.3991 55.1088 23 54.0104M53.794 67.191V58.6895C53.8765 57.642 53.7348 56.589 53.3783 55.6004C53.0218 54.6118 52.4587 53.7104 51.7264 52.9559C58.6331 52.1871 65.8916 49.5729 65.8916 37.5786C65.8911 34.5115 64.7098 31.562 62.5923 29.3407C63.595 26.6573 63.5241 23.6914 62.3943 21.0589C62.3943 21.0589 59.7988 20.29 53.794 24.3101C48.7526 22.9455 43.4384 22.9455 38.397 24.3101C32.3922 20.29 29.7967 21.0589 29.7967 21.0589C28.6669 23.6914 28.596 26.6573 29.5987 29.3407C27.4654 31.5785 26.2829 34.5546 26.2994 37.6445C26.2994 49.5509 33.5579 52.1651 40.4646 53.0218C39.7409 53.7687 39.1828 54.6593 38.8266 55.6358C38.4704 56.6123 38.324 57.6528 38.397 58.6895V67.191" stroke="black" stroke-width="5.39077" stroke-linecap="round" stroke-linejoin="round"/>
</svg>
